<svg width="73" height="73" viewBox="0 0 73 73" fill="none" xmlns="http://www.w3.org/2000/svg">
<g clip-path="url(#clip0_448_6)">
<circle cx="36.5" cy="36.5" r="36.5" fill="#222222"/>
<rect x="30" y="20" width="12" height="22" rx="6" fill="white"/>
<rect x="34" y="35" width="4" height="16" fill="white"/>
<ellipse cx="36" cy="51" rx="8" ry="2" fill="white"/>
<path d="M29.6784 30.076C29.7579 30.0263 29.8497 30 29.9434 30H32.5C32.7761 30 33 30.2239 33 30.5V30.5C33 30.7761 32.7761 31 32.5 31H29.9434C29.8497 31 29.7579 30.9737 29.6784 30.924V30.924C29.3651 30.7282 29.3651 30.2718 29.6784 30.076V30.076Z" fill="#5C5C5C"/>
<path d="M39.6784 30.076C39.7579 30.0263 39.8497 30 39.9434 30H42.5C42.7761 30 43 30.2239 43 30.5V30.5C43 30.7761 42.7761 31 42.5 31H39.9434C39.8497 31 39.7579 30.9737 39.6784 30.924V30.924C39.3651 30.7282 39.3651 30.2718 39.6784 30.076V30.076Z" fill="#5C5C5C"/>
<path d="M29.6784 26.076C29.7579 26.0263 29.8497 26 29.9434 26H32.5C32.7761 26 33 26.2239 33 26.5V26.5C33 26.7761 32.7761 27 32.5 27H29.9434C29.8497 27 29.7579 26.9737 29.6784 26.924V26.924C29.3651 26.7282 29.3651 26.2718 29.6784 26.076V26.076Z" fill="#5C5C5C"/>
<path d="M39.6784 26.076C39.7579 26.0263 39.8497 26 39.9434 26H42.5C42.7761 26 43 26.2239 43 26.5V26.5C43 26.7761 42.7761 27 42.5 27H39.9434C39.8497 27 39.7579 26.9737 39.6784 26.924V26.924C39.3651 26.7282 39.3651 26.2718 39.6784 26.076V26.076Z" fill="#5C5C5C"/>
<path d="M29.6784 34.076C29.7579 34.0263 29.8497 34 29.9434 34H32.5C32.7761 34 33 34.2239 33 34.5V34.5C33 34.7761 32.7761 35 32.5 35H29.9434C29.8497 35 29.7579 34.9737 29.6784 34.924V34.924C29.3651 34.7282 29.3651 34.2718 29.6784 34.076V34.076Z" fill="#5C5C5C"/>
<path d="M39.6784 34.076C39.7579 34.0263 39.8497 34 39.9434 34H42.5C42.7761 34 43 34.2239 43 34.5V34.5C43 34.7761 42.7761 35 42.5 35H39.9434C39.8497 35 39.7579 34.9737 39.6784 34.924V34.924C39.3651 34.7282 39.3651 34.2718 39.6784 34.076V34.076Z" fill="#5C5C5C"/>
<rect x="20" y="46.697" width="42" height="2" rx="1" transform="rotate(-44.9973 20 46.697)" fill="#B96666"/>
</g>
<defs>
<clipPath id="clip0_448_6">
<rect width="73" height="73" fill="white"/>
</clipPath>
</defs>
</svg>
