<svg width="4304" height="2732" xmlns="http://www.w3.org/2000/svg" xmlns:xlink="http://www.w3.org/1999/xlink" xml:space="preserve" overflow="hidden"><defs><clipPath id="clip0"><rect x="415" y="2889" width="4304" height="2732"/></clipPath><clipPath id="clip1"><rect x="415" y="2888" width="4303" height="2733"/></clipPath><clipPath id="clip2"><rect x="834" y="3354" width="3535" height="1872"/></clipPath><clipPath id="clip3"><rect x="834" y="3354" width="3535" height="1872"/></clipPath><clipPath id="clip4"><rect x="834" y="3354" width="3535" height="1872"/></clipPath><clipPath id="clip5"><rect x="834" y="3354" width="3535" height="1872"/></clipPath><clipPath id="clip6"><rect x="415" y="2888" width="4303" height="2733"/></clipPath><clipPath id="clip7"><rect x="415" y="2888" width="4303" height="2733"/></clipPath><clipPath id="clip8"><rect x="415" y="2888" width="4303" height="2733"/></clipPath><clipPath id="clip9"><rect x="415" y="2888" width="4303" height="2733"/></clipPath><clipPath id="clip10"><rect x="415" y="2888" width="4303" height="2733"/></clipPath><clipPath id="clip11"><rect x="415" y="2888" width="4303" height="2733"/></clipPath><clipPath id="clip12"><rect x="415" y="2888" width="4303" height="2733"/></clipPath><clipPath id="clip13"><rect x="415" y="2888" width="4303" height="2733"/></clipPath><clipPath id="clip14"><rect x="415" y="2888" width="4303" height="2733"/></clipPath><clipPath id="clip15"><rect x="415" y="2888" width="4303" height="2733"/></clipPath><clipPath id="clip16"><rect x="415" y="2888" width="4303" height="2733"/></clipPath><clipPath id="clip17"><rect x="415" y="2888" width="4303" height="2733"/></clipPath><clipPath id="clip18"><rect x="415" y="2888" width="4303" height="2733"/></clipPath><clipPath id="clip19"><rect x="415" y="2888" width="4303" height="2733"/></clipPath><clipPath id="clip20"><rect x="415" y="2888" width="4303" height="2733"/></clipPath><clipPath id="clip21"><rect x="415" y="2888" width="4303" height="2733"/></clipPath><clipPath id="clip22"><rect x="415" y="2888" width="4303" height="2733"/></clipPath><clipPath id="clip23"><rect x="415" y="2888" width="4303" height="2733"/></clipPath><clipPath id="clip24"><rect x="415" y="2888" width="4303" height="2733"/></clipPath><clipPath id="clip25"><rect x="415" y="2888" width="4303" height="2733"/></clipPath><clipPath id="clip26"><rect x="415" y="2888" width="4303" height="2733"/></clipPath><clipPath id="clip27"><rect x="415" y="2888" width="4303" height="2733"/></clipPath><clipPath id="clip28"><rect x="415" y="2888" width="4303" height="2733"/></clipPath><clipPath id="clip29"><rect x="415" y="2888" width="4303" height="2733"/></clipPath><clipPath id="clip30"><rect x="415" y="2888" width="4303" height="2733"/></clipPath></defs><g clip-path="url(#clip0)" transform="translate(-415 -2889)"><rect x="415" y="2889" width="4304" height="2732" fill="#FFFFFF"/><g clip-path="url(#clip1)"><path d="M834.5 4989.66 4365.5 4989.66M834.5 4755.66 4365.5 4755.66M834.5 4522.65 4365.5 4522.65M834.5 4288.64 4365.5 4288.64M834.5 4055.63 4365.5 4055.63M834.5 3821.63 4365.5 3821.63M834.5 3587.62 4365.5 3587.62M834.5 3354.5 4365.5 3354.5" stroke="#D9D9D9" stroke-width="3.4375" stroke-linejoin="round" stroke-miterlimit="10" fill="none"/></g><g clip-path="url(#clip2)"><path d="M1018.03 4756.16 1534.05 4756.16 1534.05 5223 1018.03 5223ZM1900.06 5218.17 2417.08 5218.17 2417.08 5223 1900.06 5223ZM2783.09 4761.16 3300.11 4761.16 3300.11 5223 2783.09 5223ZM3666.12 5148.17 4182.14 5148.17 4182.14 5223 3666.12 5223Z" fill="#4679A7"/></g><g clip-path="url(#clip3)"><path d="M1018.03 4377.14 1534.05 4377.14 1534.05 4756.16 1018.03 4756.16ZM1900.06 5214.17 2417.08 5214.17 2417.08 5218.17 1900.06 5218.17ZM2783.09 4737.16 3300.11 4737.16 3300.11 4761.16 2783.09 4761.16ZM3666.12 5144.17 4182.14 5144.17 4182.14 5148.17 3666.12 5148.17Z" fill="#5591C7"/></g><g clip-path="url(#clip4)"><path d="M1018.03 3934.13 1534.05 3934.13 1534.05 4377.14 1018.03 4377.14ZM1900.06 4751.16 2417.08 4751.16 2417.08 5214.17 1900.06 5214.17ZM2783.09 4285.14 3300.11 4285.14 3300.11 4737.16 2783.09 4737.16ZM3666.12 4791.16 4182.14 4791.16 4182.14 5144.17 3666.12 5144.17Z" fill="#84AEDC"/></g><g clip-path="url(#clip5)"><path d="M1018.03 3560.12 1534.05 3560.12 1534.05 3934.13 1018.03 3934.13ZM1900.06 4340.14 2417.08 4340.14 2417.08 4751.16 1900.06 4751.16ZM2783.09 3921.13 3300.11 3921.13 3300.11 4285.14 2783.09 4285.14ZM3666.12 4567.15 4182.14 4567.15 4182.14 4791.16 3666.12 4791.16Z" fill="#B8CDE8"/></g><g clip-path="url(#clip6)"><path d="M834.5 5223.5 4365.5 5223.5" stroke="#D9D9D9" stroke-width="3.4375" stroke-linejoin="round" stroke-miterlimit="10" fill="none" fill-rule="evenodd"/></g><g clip-path="url(#clip7)"><text font-family="Arial,Arial_MSFontService,sans-serif" font-weight="700" font-size="41" transform="matrix(1 0 0 1 681.865 5236)">0.00%</text></g><g clip-path="url(#clip8)"><text font-family="Arial,Arial_MSFontService,sans-serif" font-weight="700" font-size="41" transform="matrix(1 0 0 1 658.925 5002)">50.00%</text></g><g clip-path="url(#clip9)"><text font-family="Arial,Arial_MSFontService,sans-serif" font-weight="700" font-size="41" transform="matrix(1 0 0 1 635.985 4769)">100.00%</text></g><g clip-path="url(#clip10)"><text font-family="Arial,Arial_MSFontService,sans-serif" font-weight="700" font-size="41" transform="matrix(1 0 0 1 635.985 4535)">150.00%</text></g><g clip-path="url(#clip11)"><text font-family="Arial,Arial_MSFontService,sans-serif" font-weight="700" font-size="41" transform="matrix(1 0 0 1 635.985 4302)">200.00%</text></g><g clip-path="url(#clip12)"><text font-family="Arial,Arial_MSFontService,sans-serif" font-weight="700" font-size="41" transform="matrix(1 0 0 1 635.985 4068)">250.00%</text></g><g clip-path="url(#clip13)"><text font-family="Arial,Arial_MSFontService,sans-serif" font-weight="700" font-size="41" transform="matrix(1 0 0 1 635.985 3834)">300.00%</text></g><g clip-path="url(#clip14)"><text font-family="Arial,Arial_MSFontService,sans-serif" font-weight="700" font-size="41" transform="matrix(1 0 0 1 635.985 3601)">350.00%</text></g><g clip-path="url(#clip15)"><text font-family="Arial,Arial_MSFontService,sans-serif" font-weight="700" font-size="41" transform="matrix(1 0 0 1 635.985 3367)">400.00%</text></g><g clip-path="url(#clip16)"><text fill="#262626" font-family="Arial,Arial_MSFontService,sans-serif" font-weight="700" font-size="41" transform="matrix(1 0 0 1 1071.74 5285)">T5 Custom FineTune</text></g><g clip-path="url(#clip17)"><text fill="#262626" font-family="Arial,Arial_MSFontService,sans-serif" font-weight="700" font-size="41" transform="matrix(1 0 0 1 1951.19 5285)">Google T5 MultiTask</text></g><g clip-path="url(#clip18)"><text fill="#262626" font-family="Arial,Arial_MSFontService,sans-serif" font-weight="700" font-size="41" transform="matrix(1 0 0 1 2887.94 5285)">BERT SQUAD 2</text></g><g clip-path="url(#clip19)"><text fill="#262626" font-family="Arial,Arial_MSFontService,sans-serif" font-weight="700" font-size="41" transform="matrix(1 0 0 1 3773.1 5285)">Electra SQAD 2</text></g><g clip-path="url(#clip20)"><text font-family="Arial,Arial_MSFontService,sans-serif" font-weight="700" font-size="50" transform="matrix(6.12323e-17 -1 1 6.12323e-17 534.029 4454)">Accuracy</text></g><g clip-path="url(#clip21)"><text font-family="Arial,Arial_MSFontService,sans-serif" font-weight="700" font-size="50" transform="matrix(1 0 0 1 2533.86 5424)">Model</text></g><g clip-path="url(#clip22)"><text fill="#262626" font-family="Arial,Arial_MSFontService,sans-serif" font-weight="700" font-size="83" transform="matrix(1 0 0 1 1745.21 3189)">Model Benchmarks on Task Evaluation Sets</text></g><g clip-path="url(#clip23)"><rect x="1815" y="5547" width="21" height="20" fill="#4679A7"/></g><g clip-path="url(#clip24)"><text fill="#262626" font-family="Arial,Arial_MSFontService,sans-serif" font-weight="700" font-size="41" transform="matrix(1 0 0 1 1844.83 5570)">Simple Calculator</text></g><g clip-path="url(#clip25)"><rect x="2260" y="5547" width="21" height="20" fill="#5591C7"/></g><g clip-path="url(#clip26)"><text fill="#262626" font-family="Arial,Arial_MSFontService,sans-serif" font-weight="700" font-size="41" transform="matrix(1 0 0 1 2289.39 5570)">Advanced Calculator</text></g><g clip-path="url(#clip27)"><rect x="2766" y="5547" width="21" height="20" fill="#84AEDC"/></g><g clip-path="url(#clip28)"><text fill="#262626" font-family="Arial,Arial_MSFontService,sans-serif" font-weight="700" font-size="41" transform="matrix(1 0 0 1 2795.87 5570)">Weather</text></g><g clip-path="url(#clip29)"><rect x="3025" y="5547" width="21" height="20" fill="#B8CDE8"/></g><g clip-path="url(#clip30)"><text fill="#262626" font-family="Arial,Arial_MSFontService,sans-serif" font-weight="700" font-size="41" transform="matrix(1 0 0 1 3054.74 5570)">Account Form</text></g></g></svg>