<svg width="310" height="697" viewBox="0 0 310 697" fill="none" xmlns="http://www.w3.org/2000/svg">
<g clip-path="url(#clip0_20_2)">
<g clip-path="url(#clip1_20_2)">
<rect x="31.5005" y="31.5" width="251" height="251" rx="38.5" stroke="black" stroke-width="3"/>
<path d="M68.1008 61H71.9602V71.3203C71.9602 72.513 71.6763 73.5521 71.1086 74.4375C70.5409 75.3177 69.7492 76 68.7336 76.4844C67.718 76.9636 66.5383 77.2031 65.1945 77.2031C63.8352 77.2031 62.6477 76.9636 61.632 76.4844C60.6164 76 59.8274 75.3177 59.2649 74.4375C58.7024 73.5521 58.4211 72.513 58.4211 71.3203V61H62.2883V70.9844C62.2883 71.5365 62.4081 72.0287 62.6477 72.461C62.8925 72.8932 63.2336 73.2318 63.6711 73.4766C64.1086 73.7214 64.6164 73.8438 65.1945 73.8438C65.7727 73.8438 66.2779 73.7214 66.7102 73.4766C67.1477 73.2318 67.4888 72.8932 67.7336 72.461C67.9784 72.0287 68.1008 71.5365 68.1008 70.9844V61ZM83.9124 65.7969C83.8604 65.224 83.6286 64.7787 83.2171 64.461C82.8109 64.138 82.2301 63.9766 81.4749 63.9766C80.9749 63.9766 80.5583 64.0417 80.2249 64.1719C79.8916 64.3021 79.6416 64.4818 79.4749 64.711C79.3083 64.9349 79.2223 65.1927 79.2171 65.4844C79.2067 65.724 79.2536 65.9349 79.3578 66.1172C79.4671 66.2995 79.6234 66.461 79.8265 66.6016C80.0348 66.737 80.2848 66.8568 80.5765 66.961C80.8682 67.0651 81.1963 67.1563 81.5609 67.2344L82.9359 67.5469C83.7275 67.7188 84.4255 67.9479 85.0296 68.2344C85.639 68.5208 86.1494 68.862 86.5609 69.2578C86.9775 69.6537 87.2926 70.1094 87.5062 70.625C87.7197 71.1406 87.8291 71.7188 87.8343 72.3594C87.8291 73.3698 87.5739 74.237 87.0687 74.961C86.5635 75.6849 85.8369 76.2396 84.889 76.625C83.9463 77.0104 82.8083 77.2031 81.4749 77.2031C80.1364 77.2031 78.9697 77.0026 77.9749 76.6016C76.9801 76.2005 76.2067 75.5912 75.6546 74.7735C75.1025 73.9557 74.8187 72.9219 74.8031 71.6719H78.5062C78.5374 72.1875 78.6755 72.6172 78.9202 72.961C79.165 73.3047 79.501 73.5651 79.9281 73.7422C80.3604 73.9193 80.8604 74.0078 81.4281 74.0078C81.9489 74.0078 82.3916 73.9375 82.7562 73.7969C83.126 73.6563 83.4098 73.461 83.6078 73.211C83.8057 72.961 83.9072 72.6745 83.9124 72.3516C83.9072 72.0495 83.8135 71.7917 83.6312 71.5781C83.4489 71.3594 83.1676 71.1719 82.7874 71.0156C82.4124 70.8542 81.9333 70.7057 81.3499 70.5703L79.6781 70.1797C78.2926 69.862 77.2015 69.349 76.4046 68.6406C75.6078 67.9271 75.2119 66.9636 75.2171 65.75C75.2119 64.7604 75.4775 63.8932 76.014 63.1485C76.5505 62.4037 77.2926 61.8229 78.2406 61.4063C79.1885 60.9896 80.2692 60.7813 81.4828 60.7813C82.7223 60.7813 83.7979 60.9922 84.7093 61.4141C85.626 61.8307 86.3369 62.4167 86.8421 63.1719C87.3473 63.9271 87.6051 64.8021 87.6156 65.7969H83.9124ZM90.6674 77V61H101.824V64.1406H94.5346V67.4219H101.253V70.5703H94.5346V73.8594H101.824V77H90.6674ZM105.126 77V61H111.735C112.933 61 113.967 61.2162 114.837 61.6485C115.712 62.0755 116.386 62.6901 116.86 63.4922C117.334 64.2891 117.571 65.2344 117.571 66.3281C117.571 67.4375 117.329 68.3802 116.844 69.1563C116.36 69.9271 115.672 70.5156 114.782 70.9219C113.891 71.3229 112.837 71.5235 111.618 71.5235H107.438V68.4766H110.899C111.482 68.4766 111.969 68.4011 112.36 68.25C112.756 68.0938 113.055 67.8594 113.258 67.5469C113.462 67.2292 113.563 66.8229 113.563 66.3281C113.563 65.8333 113.462 65.4245 113.258 65.1016C113.055 64.7735 112.756 64.5287 112.36 64.3672C111.964 64.2005 111.477 64.1172 110.899 64.1172H108.993V77H105.126ZM114.133 69.6875L118.118 77H113.899L109.993 69.6875H114.133ZM130.046 61V77H126.179V61H130.046ZM146.971 61V77H143.689L137.322 67.7656H137.221V77H133.353V61H136.682L142.978 70.2188H143.111V61H146.971ZM149.759 64.1406V61H163.282V64.1406H158.431V77H154.618V64.1406H149.759ZM166.051 77V61H177.207V64.1406H169.918V67.4219H176.637V70.5703H169.918V73.8594H177.207V77H166.051ZM180.509 77V61H187.118C188.316 61 189.35 61.2162 190.22 61.6485C191.095 62.0755 191.769 62.6901 192.243 63.4922C192.717 64.2891 192.954 65.2344 192.954 66.3281C192.954 67.4375 192.712 68.3802 192.228 69.1563C191.743 69.9271 191.056 70.5156 190.165 70.9219C189.275 71.3229 188.22 71.5235 187.001 71.5235H182.822V68.4766H186.283C186.866 68.4766 187.353 68.4011 187.743 68.25C188.139 68.0938 188.439 67.8594 188.642 67.5469C188.845 67.2292 188.947 66.8229 188.947 66.3281C188.947 65.8333 188.845 65.4245 188.642 65.1016C188.439 64.7735 188.139 64.5287 187.743 64.3672C187.348 64.2005 186.861 64.1172 186.283 64.1172H184.376V77H180.509ZM189.517 69.6875L193.501 77H189.283L185.376 69.6875H189.517ZM195.955 77V61H206.877V64.1406H199.823V67.4219H206.182V70.5703H199.823V77H195.955ZM211.168 77H207.011L212.41 61H217.558L222.957 77H218.8L215.043 65.0313H214.918L211.168 77ZM210.613 70.7031H219.3V73.6406H210.613V70.7031ZM239.331 66.7969H235.424C235.372 66.3958 235.266 66.0339 235.104 65.711C234.943 65.388 234.729 65.112 234.464 64.8828C234.198 64.6537 233.883 64.4792 233.518 64.3594C233.159 64.2344 232.76 64.1719 232.323 64.1719C231.547 64.1719 230.878 64.362 230.315 64.7422C229.758 65.1224 229.328 65.6719 229.026 66.3906C228.729 67.1094 228.581 67.9792 228.581 69C228.581 70.0625 228.732 70.9531 229.034 71.6719C229.341 72.3854 229.771 72.9245 230.323 73.2891C230.88 73.6485 231.539 73.8281 232.299 73.8281C232.727 73.8281 233.115 73.7735 233.464 73.6641C233.818 73.5547 234.128 73.3958 234.393 73.1875C234.664 72.974 234.885 72.7162 235.057 72.4141C235.234 72.1068 235.357 71.7604 235.424 71.375L239.331 71.3985C239.263 72.1068 239.057 72.8047 238.714 73.4922C238.375 74.1797 237.909 74.8073 237.315 75.375C236.721 75.9375 235.997 76.3854 235.143 76.7188C234.294 77.0521 233.32 77.2188 232.221 77.2188C230.773 77.2188 229.477 76.9011 228.331 76.2656C227.19 75.625 226.289 74.6927 225.628 73.4688C224.966 72.2448 224.635 70.7552 224.635 69C224.635 67.2396 224.971 65.7474 225.643 64.5235C226.315 63.2995 227.224 62.3698 228.37 61.7344C229.516 61.099 230.799 60.7813 232.221 60.7813C233.19 60.7813 234.086 60.9167 234.909 61.1875C235.732 61.4531 236.456 61.8438 237.081 62.3594C237.706 62.8698 238.214 63.4974 238.604 64.2422C238.995 64.987 239.237 65.8386 239.331 66.7969ZM242.424 77V61H253.58V64.1406H246.291V67.4219H253.01V70.5703H246.291V73.8594H253.58V77H242.424Z" fill="black"/>
<rect x="73.0005" y="104" width="68" height="26" rx="9" stroke="black" stroke-width="2"/>
<rect x="76.0005" y="158" width="68" height="26" rx="9" stroke="black" stroke-width="2"/>
<rect x="73.0005" y="217" width="68" height="26" rx="9" stroke="black" stroke-width="2"/>
<path d="M164.156 167.09L178.892 160.867C187.25 157.337 196.89 158.897 203.708 164.882V164.882C210.847 171.149 221.042 172.539 229.598 168.412L241.226 162.803" stroke="black"/>
<path d="M164.156 224.09L178.892 217.867C187.25 214.337 196.89 215.897 203.708 221.882V221.882C210.847 228.149 221.042 229.539 229.598 225.412L241.226 219.803" stroke="black"/>
<path d="M164.156 113.09L178.892 106.867C187.25 103.337 196.89 104.897 203.708 110.882V110.882C210.847 117.149 221.042 118.539 229.598 114.412L241.226 108.803" stroke="black"/>
<path d="M164.156 180.09L178.892 173.867C187.25 170.337 196.89 171.897 203.708 177.882V177.882C210.847 184.149 221.042 185.539 229.598 181.412L241.226 175.803" stroke="black"/>
<path d="M164.156 237.09L178.892 230.867C187.25 227.337 196.89 228.897 203.708 234.882V234.882C210.847 241.149 221.042 242.539 229.598 238.412L241.226 232.803" stroke="black"/>
<path d="M164.156 126.09L178.892 119.867C187.25 116.337 196.89 117.897 203.708 123.882V123.882C210.847 130.149 221.042 131.539 229.598 127.412L241.226 121.803" stroke="black"/>
<path d="M164.156 175.357L178.892 169.134C187.25 165.604 196.89 167.164 203.708 173.149V173.149C210.847 179.416 221.042 180.806 229.598 176.679L241.226 171.07" stroke="black"/>
<path d="M164.156 232.357L178.892 226.134C187.25 222.604 196.89 224.164 203.708 230.149V230.149C210.847 236.416 221.042 237.806 229.598 233.679L241.226 228.07" stroke="black"/>
<path d="M164.156 121.357L178.892 115.134C187.25 111.604 196.89 113.164 203.708 119.149V119.149C210.847 125.416 221.042 126.806 229.598 122.679L241.226 117.07" stroke="black"/>
<path d="M164.156 171.357L178.892 165.134C187.25 161.604 196.89 163.164 203.708 169.149V169.149C210.847 175.416 221.042 176.806 229.598 172.679L241.226 167.07" stroke="black"/>
<path d="M164.156 228.357L178.892 222.134C187.25 218.604 196.89 220.164 203.708 226.149V226.149C210.847 232.416 221.042 233.806 229.598 229.679L241.226 224.07" stroke="black"/>
<path d="M164.156 117.357L178.892 111.134C187.25 107.604 196.89 109.164 203.708 115.149V115.149C210.847 121.416 221.042 122.806 229.598 118.679L241.226 113.07" stroke="black"/>
<path d="M115.345 125.405C115.898 125.29 116.227 124.712 115.953 124.218C115.347 123.131 114.393 122.175 113.173 121.447C111.601 120.508 109.675 120 107.694 120C105.713 120 103.787 120.508 102.215 121.447C100.995 122.175 100.041 123.131 99.4349 124.218C99.1602 124.712 99.4895 125.29 100.042 125.405V125.405C105.089 126.457 110.299 126.457 115.345 125.405V125.405Z" fill="black"/>
<path d="M118.345 179.405C118.898 179.29 119.227 178.712 118.953 178.218C118.347 177.131 117.393 176.175 116.173 175.447C114.601 174.508 112.675 174 110.694 174C108.713 174 106.787 174.508 105.215 175.447C103.995 176.175 103.041 177.131 102.435 178.218C102.16 178.712 102.489 179.29 103.042 179.405V179.405C108.089 180.457 113.299 180.457 118.345 179.405V179.405Z" fill="black"/>
<path d="M115.345 238.405C115.898 238.29 116.227 237.712 115.953 237.218C115.347 236.131 114.393 235.175 113.173 234.447C111.601 233.508 109.675 233 107.694 233C105.713 233 103.787 233.508 102.215 234.447C100.995 235.175 100.041 236.131 99.4349 237.218C99.1602 237.712 99.4895 238.29 100.042 238.405V238.405C105.089 239.457 110.299 239.457 115.345 238.405V238.405Z" fill="black"/>
<circle cx="107.694" cy="114" r="5" fill="black"/>
<circle cx="110.694" cy="168" r="5" fill="black"/>
<circle cx="107.694" cy="227" r="5" fill="black"/>
</g>
<rect x="30.0001" y="400" width="251" height="251" rx="38.5" stroke="black" stroke-width="3"/>
<path d="M85.504 445.5V429.5H89.3712V442.359H96.0274V445.5H85.504ZM98.9094 445.5V429.5H102.777V442.359H109.433V445.5H98.9094ZM112.315 429.5H117.104L121.166 439.406H121.354L125.416 429.5H130.205V445.5H126.44V435.672H126.307L122.463 445.398H120.057L116.213 435.617H116.08V445.5H112.315V429.5ZM139.104 445.5V429.5H150.26V432.641H142.971V435.922H149.69V439.07H142.971V442.359H150.26V445.5H139.104ZM167.179 429.5V445.5H163.898L157.531 436.266H157.429V445.5H153.562V429.5H156.89L163.187 438.719H163.32V429.5H167.179ZM180.991 434.727C180.902 434.398 180.772 434.109 180.6 433.859C180.429 433.604 180.218 433.388 179.968 433.211C179.718 433.034 179.431 432.901 179.108 432.812C178.785 432.719 178.431 432.672 178.046 432.672C177.27 432.672 176.598 432.859 176.03 433.234C175.468 433.609 175.033 434.156 174.725 434.875C174.418 435.589 174.264 436.456 174.264 437.477C174.264 438.503 174.413 439.378 174.71 440.102C175.007 440.826 175.436 441.378 175.999 441.758C176.561 442.138 177.244 442.328 178.046 442.328C178.754 442.328 179.353 442.214 179.843 441.984C180.337 441.75 180.712 441.419 180.968 440.992C181.223 440.565 181.35 440.062 181.35 439.484L182.069 439.57H178.179V436.75H185.077V438.867C185.077 440.299 184.772 441.526 184.163 442.547C183.559 443.568 182.725 444.352 181.663 444.898C180.606 445.445 179.389 445.719 178.014 445.719C176.488 445.719 175.147 445.388 173.991 444.727C172.835 444.065 171.934 443.122 171.288 441.898C170.642 440.669 170.319 439.211 170.319 437.523C170.319 436.211 170.514 435.047 170.905 434.031C171.296 433.01 171.84 432.146 172.538 431.437C173.241 430.729 174.054 430.193 174.975 429.828C175.902 429.464 176.9 429.281 177.968 429.281C178.895 429.281 179.757 429.414 180.554 429.68C181.356 429.945 182.064 430.32 182.679 430.805C183.298 431.289 183.801 431.865 184.186 432.531C184.572 433.198 184.811 433.93 184.905 434.727H180.991ZM192.103 429.5V445.5H188.236V429.5H192.103ZM209.028 429.5V445.5H205.747L199.38 436.266H199.278V445.5H195.411V429.5H198.739L205.036 438.719H205.169V429.5H209.028ZM212.34 445.5V429.5H223.496V432.641H216.207V435.922H222.926V439.07H216.207V442.359H223.496V445.5H212.34Z" fill="black"/>
<path d="M136.138 484.935H134.008C133.979 484.716 133.921 484.518 133.833 484.342C133.745 484.166 133.628 484.016 133.483 483.891C133.339 483.766 133.167 483.67 132.968 483.605C132.772 483.537 132.554 483.503 132.316 483.503C131.893 483.503 131.527 483.607 131.221 483.814C130.917 484.021 130.682 484.321 130.518 484.713C130.356 485.105 130.275 485.58 130.275 486.136C130.275 486.716 130.357 487.202 130.522 487.594C130.689 487.983 130.924 488.277 131.225 488.476C131.529 488.672 131.888 488.77 132.303 488.77C132.536 488.77 132.748 488.74 132.938 488.68C133.131 488.621 133.3 488.534 133.445 488.42C133.593 488.304 133.714 488.163 133.807 487.999C133.904 487.831 133.971 487.642 134.008 487.432L136.138 487.445C136.101 487.831 135.989 488.212 135.802 488.587C135.617 488.962 135.363 489.304 135.039 489.614C134.715 489.92 134.32 490.165 133.854 490.347C133.391 490.528 132.86 490.619 132.26 490.619C131.471 490.619 130.763 490.446 130.138 490.099C129.516 489.75 129.025 489.241 128.664 488.574C128.303 487.906 128.123 487.094 128.123 486.136C128.123 485.176 128.306 484.362 128.672 483.695C129.039 483.027 129.535 482.52 130.16 482.173C130.785 481.827 131.485 481.653 132.26 481.653C132.789 481.653 133.277 481.727 133.726 481.875C134.175 482.02 134.57 482.233 134.911 482.514C135.252 482.793 135.529 483.135 135.742 483.541C135.955 483.947 136.087 484.412 136.138 484.935ZM137.825 490.5V481.773H139.935V488.787H143.565V490.5H137.825ZM147.142 490.5H144.875L147.82 481.773H150.628L153.573 490.5H151.306L149.256 483.972H149.188L147.142 490.5ZM146.84 487.065H151.578V488.668H146.84V487.065ZM159.44 484.389C159.412 484.077 159.285 483.834 159.061 483.661C158.839 483.484 158.523 483.396 158.111 483.396C157.838 483.396 157.611 483.432 157.429 483.503C157.247 483.574 157.111 483.672 157.02 483.797C156.929 483.919 156.882 484.06 156.879 484.219C156.873 484.349 156.899 484.464 156.956 484.564C157.015 484.663 157.101 484.751 157.211 484.828C157.325 484.902 157.461 484.967 157.621 485.024C157.78 485.081 157.959 485.131 158.157 485.173L158.907 485.344C159.339 485.438 159.72 485.562 160.05 485.719C160.382 485.875 160.66 486.061 160.885 486.277C161.112 486.493 161.284 486.741 161.4 487.023C161.517 487.304 161.577 487.619 161.579 487.969C161.577 488.52 161.437 488.993 161.162 489.388C160.886 489.783 160.49 490.085 159.973 490.295C159.459 490.506 158.838 490.611 158.111 490.611C157.38 490.611 156.744 490.501 156.202 490.283C155.659 490.064 155.237 489.732 154.936 489.286C154.635 488.839 154.48 488.276 154.471 487.594H156.491C156.508 487.875 156.584 488.109 156.717 488.297C156.851 488.484 157.034 488.626 157.267 488.723C157.503 488.82 157.775 488.868 158.085 488.868C158.369 488.868 158.611 488.83 158.809 488.753C159.011 488.676 159.166 488.57 159.274 488.433C159.382 488.297 159.437 488.141 159.44 487.964C159.437 487.8 159.386 487.659 159.287 487.543C159.187 487.423 159.034 487.321 158.827 487.236C158.622 487.148 158.361 487.067 158.042 486.993L157.13 486.78C156.375 486.607 155.78 486.327 155.345 485.94C154.91 485.551 154.694 485.026 154.697 484.364C154.694 483.824 154.839 483.351 155.132 482.945C155.425 482.538 155.829 482.222 156.346 481.994C156.863 481.767 157.453 481.653 158.115 481.653C158.791 481.653 159.378 481.768 159.875 481.999C160.375 482.226 160.763 482.545 161.038 482.957C161.314 483.369 161.454 483.847 161.46 484.389H159.44ZM167.842 484.389C167.814 484.077 167.687 483.834 167.463 483.661C167.241 483.484 166.924 483.396 166.512 483.396C166.24 483.396 166.012 483.432 165.831 483.503C165.649 483.574 165.512 483.672 165.422 483.797C165.331 483.919 165.284 484.06 165.281 484.219C165.275 484.349 165.301 484.464 165.358 484.564C165.417 484.663 165.503 484.751 165.613 484.828C165.727 484.902 165.863 484.967 166.022 485.024C166.182 485.081 166.36 485.131 166.559 485.173L167.309 485.344C167.741 485.438 168.122 485.562 168.451 485.719C168.784 485.875 169.062 486.061 169.287 486.277C169.514 486.493 169.686 486.741 169.802 487.023C169.919 487.304 169.978 487.619 169.981 487.969C169.978 488.52 169.839 488.993 169.564 489.388C169.288 489.783 168.892 490.085 168.375 490.295C167.86 490.506 167.24 490.611 166.512 490.611C165.782 490.611 165.146 490.501 164.603 490.283C164.061 490.064 163.639 489.732 163.338 489.286C163.037 488.839 162.882 488.276 162.873 487.594H164.893C164.91 487.875 164.985 488.109 165.119 488.297C165.253 488.484 165.436 488.626 165.669 488.723C165.905 488.82 166.177 488.868 166.487 488.868C166.771 488.868 167.012 488.83 167.211 488.753C167.413 488.676 167.568 488.57 167.676 488.433C167.784 488.297 167.839 488.141 167.842 487.964C167.839 487.8 167.788 487.659 167.689 487.543C167.589 487.423 167.436 487.321 167.228 487.236C167.024 487.148 166.762 487.067 166.444 486.993L165.532 486.78C164.777 486.607 164.182 486.327 163.747 485.94C163.312 485.551 163.096 485.026 163.099 484.364C163.096 483.824 163.241 483.351 163.534 482.945C163.826 482.538 164.231 482.222 164.748 481.994C165.265 481.767 165.855 481.653 166.517 481.653C167.193 481.653 167.78 481.768 168.277 481.999C168.777 482.226 169.164 482.545 169.44 482.957C169.716 483.369 169.856 483.847 169.862 484.389H167.842ZM173.636 481.773V490.5H171.527V481.773H173.636ZM175.44 490.5V481.773H181.398V483.486H177.55V485.276H181.018V486.993H177.55V490.5H175.44ZM185.049 481.773V490.5H182.94V481.773H185.049ZM194.775 484.935H192.644C192.616 484.716 192.558 484.518 192.47 484.342C192.382 484.166 192.265 484.016 192.12 483.891C191.975 483.766 191.804 483.67 191.605 483.605C191.409 483.537 191.191 483.503 190.953 483.503C190.529 483.503 190.164 483.607 189.858 483.814C189.554 484.021 189.319 484.321 189.154 484.713C188.992 485.105 188.912 485.58 188.912 486.136C188.912 486.716 188.994 487.202 189.159 487.594C189.326 487.983 189.561 488.277 189.862 488.476C190.166 488.672 190.525 488.77 190.94 488.77C191.173 488.77 191.385 488.74 191.575 488.68C191.768 488.621 191.937 488.534 192.082 488.42C192.23 488.304 192.35 488.163 192.444 487.999C192.541 487.831 192.608 487.642 192.644 487.432L194.775 487.445C194.738 487.831 194.626 488.212 194.439 488.587C194.254 488.962 194 489.304 193.676 489.614C193.352 489.92 192.957 490.165 192.491 490.347C192.028 490.528 191.497 490.619 190.897 490.619C190.108 490.619 189.4 490.446 188.775 490.099C188.153 489.75 187.662 489.241 187.301 488.574C186.94 487.906 186.76 487.094 186.76 486.136C186.76 485.176 186.943 484.362 187.309 483.695C187.676 483.027 188.171 482.52 188.796 482.173C189.421 481.827 190.122 481.653 190.897 481.653C191.426 481.653 191.914 481.727 192.363 481.875C192.812 482.02 193.207 482.233 193.548 482.514C193.889 482.793 194.166 483.135 194.379 483.541C194.592 483.947 194.724 484.412 194.775 484.935ZM198.127 490.5H195.86L198.805 481.773H201.613L204.558 490.5H202.291L200.241 483.972H200.173L198.127 490.5ZM197.825 487.065H202.563V488.668H197.825V487.065ZM204.602 483.486V481.773H211.978V483.486H209.332V490.5H207.253V483.486H204.602ZM215.598 481.773V490.5H213.489V481.773H215.598ZM225.639 486.136C225.639 487.097 225.455 487.911 225.085 488.578C224.716 489.246 224.216 489.753 223.585 490.099C222.958 490.446 222.253 490.619 221.472 490.619C220.688 490.619 219.982 490.445 219.354 490.095C218.726 489.746 218.227 489.239 217.858 488.574C217.492 487.906 217.308 487.094 217.308 486.136C217.308 485.176 217.492 484.362 217.858 483.695C218.227 483.027 218.726 482.52 219.354 482.173C219.982 481.827 220.688 481.653 221.472 481.653C222.253 481.653 222.958 481.827 223.585 482.173C224.216 482.52 224.716 483.027 225.085 483.695C225.455 484.362 225.639 485.176 225.639 486.136ZM223.483 486.136C223.483 485.568 223.402 485.088 223.24 484.696C223.081 484.304 222.851 484.007 222.55 483.805C222.252 483.604 221.892 483.503 221.472 483.503C221.054 483.503 220.695 483.604 220.394 483.805C220.093 484.007 219.861 484.304 219.699 484.696C219.54 485.088 219.46 485.568 219.46 486.136C219.46 486.705 219.54 487.185 219.699 487.577C219.861 487.969 220.093 488.266 220.394 488.467C220.695 488.669 221.054 488.77 221.472 488.77C221.892 488.77 222.252 488.669 222.55 488.467C222.851 488.266 223.081 487.969 223.24 487.577C223.402 487.185 223.483 486.705 223.483 486.136ZM234.778 481.773V490.5H232.989L229.516 485.463H229.46V490.5H227.351V481.773H229.166L232.601 486.801H232.673V481.773H234.778Z" fill="black"/>
<path d="M142.407 534.5V525.773H146.012C146.665 525.773 147.229 525.901 147.704 526.156C148.181 526.409 148.549 526.763 148.807 527.217C149.066 527.669 149.195 528.195 149.195 528.794C149.195 529.396 149.063 529.923 148.799 530.375C148.538 530.824 148.164 531.172 147.678 531.419C147.192 531.666 146.616 531.79 145.948 531.79H143.724V530.128H145.556C145.874 530.128 146.14 530.072 146.353 529.962C146.569 529.851 146.732 529.696 146.843 529.497C146.954 529.295 147.009 529.061 147.009 528.794C147.009 528.524 146.954 528.291 146.843 528.095C146.732 527.896 146.569 527.743 146.353 527.635C146.137 527.527 145.871 527.473 145.556 527.473H144.516V534.5H142.407ZM151.548 534.5H149.281L152.226 525.773H155.034L157.979 534.5H155.711L153.662 527.972H153.594L151.548 534.5ZM151.246 531.065H155.984V532.668H151.246V531.065ZM159.398 534.5V525.773H163.003C163.657 525.773 164.221 525.891 164.695 526.126C165.172 526.359 165.54 526.695 165.799 527.132C166.057 527.567 166.186 528.082 166.186 528.679C166.186 529.284 166.054 529.798 165.79 530.222C165.526 530.642 165.151 530.963 164.665 531.185C164.179 531.403 163.604 531.513 162.939 531.513H160.659V529.851H162.547C162.865 529.851 163.131 529.81 163.344 529.727C163.56 529.642 163.723 529.514 163.834 529.344C163.945 529.17 164 528.949 164 528.679C164 528.409 163.945 528.186 163.834 528.01C163.723 527.831 163.56 527.697 163.344 527.609C163.128 527.518 162.863 527.473 162.547 527.473H161.508V534.5H159.398ZM164.311 530.511L166.485 534.5H164.184L162.053 530.511H164.311ZM169.711 534.5H167.444L170.389 525.773H173.197L176.142 534.5H173.875L171.825 527.972H171.757L169.711 534.5ZM169.409 531.065H174.147V532.668H169.409V531.065ZM177.561 525.773H180.173L182.389 531.176H182.492L184.708 525.773H187.32V534.5H185.266V529.139H185.193L183.097 534.445H181.784L179.688 529.109H179.615V534.5H177.561V525.773ZM189.115 534.5V525.773H195.201V527.486H191.225V529.276H194.89V530.993H191.225V532.787H195.201V534.5H189.115ZM196.716 527.486V525.773H204.093V527.486H201.446V534.5H199.367V527.486H196.716ZM205.603 534.5V525.773H211.688V527.486H207.712V529.276H211.377V530.993H207.712V532.787H211.688V534.5H205.603ZM213.489 534.5V525.773H217.094C217.748 525.773 218.312 525.891 218.786 526.126C219.263 526.359 219.631 526.695 219.89 527.132C220.148 527.567 220.277 528.082 220.277 528.679C220.277 529.284 220.145 529.798 219.881 530.222C219.617 530.642 219.242 530.963 218.756 531.185C218.27 531.403 217.695 531.513 217.03 531.513H214.75V529.851H216.638C216.956 529.851 217.222 529.81 217.435 529.727C217.651 529.642 217.814 529.514 217.925 529.344C218.036 529.17 218.091 528.949 218.091 528.679C218.091 528.409 218.036 528.186 217.925 528.01C217.814 527.831 217.651 527.697 217.435 527.609C217.219 527.518 216.954 527.473 216.638 527.473H215.598V534.5H213.489ZM218.402 530.511L220.576 534.5H218.275L216.144 530.511H218.402ZM139.958 549.5V540.773H146.043V542.486H142.067V544.276H145.732V545.993H142.067V547.787H146.043V549.5H139.958ZM149.979 540.773L151.573 543.53H151.641L153.252 540.773H155.612L152.979 545.136L155.698 549.5H153.277L151.641 546.713H151.573L149.936 549.5H147.533L150.239 545.136L147.601 540.773H149.979ZM156.898 542.486V540.773H164.274V542.486H161.628V549.5H159.548V542.486H156.898ZM165.784 549.5V540.773H169.389C170.043 540.773 170.607 540.891 171.081 541.126C171.559 541.359 171.926 541.695 172.185 542.132C172.443 542.567 172.573 543.082 172.573 543.679C172.573 544.284 172.441 544.798 172.176 545.222C171.912 545.642 171.537 545.963 171.051 546.185C170.566 546.403 169.99 546.513 169.326 546.513H167.046V544.851H168.934C169.252 544.851 169.517 544.81 169.73 544.727C169.946 544.642 170.11 544.514 170.22 544.344C170.331 544.17 170.387 543.949 170.387 543.679C170.387 543.409 170.331 543.186 170.22 543.01C170.11 542.831 169.946 542.697 169.73 542.609C169.514 542.518 169.249 542.473 168.934 542.473H167.894V549.5H165.784ZM170.698 545.511L172.871 549.5H170.57L168.439 545.511H170.698ZM176.097 549.5H173.83L176.775 540.773H179.583L182.528 549.5H180.261L178.211 542.972H178.143L176.097 549.5ZM175.795 546.065H180.534V547.668H175.795V546.065ZM191.459 543.935H189.329C189.3 543.716 189.242 543.518 189.154 543.342C189.066 543.166 188.949 543.016 188.804 542.891C188.66 542.766 188.488 542.67 188.289 542.605C188.093 542.537 187.875 542.503 187.637 542.503C187.213 542.503 186.848 542.607 186.542 542.814C186.238 543.021 186.003 543.321 185.838 543.713C185.677 544.105 185.596 544.58 185.596 545.136C185.596 545.716 185.678 546.202 185.843 546.594C186.01 546.983 186.245 547.277 186.546 547.476C186.85 547.672 187.209 547.77 187.624 547.77C187.857 547.77 188.069 547.74 188.259 547.68C188.452 547.621 188.621 547.534 188.766 547.42C188.914 547.304 189.035 547.163 189.128 546.999C189.225 546.831 189.292 546.642 189.329 546.432L191.459 546.445C191.422 546.831 191.31 547.212 191.123 547.587C190.938 547.962 190.684 548.304 190.36 548.614C190.036 548.92 189.641 549.165 189.175 549.347C188.712 549.528 188.181 549.619 187.581 549.619C186.792 549.619 186.084 549.446 185.459 549.099C184.837 548.75 184.346 548.241 183.985 547.574C183.624 546.906 183.444 546.094 183.444 545.136C183.444 544.176 183.627 543.362 183.993 542.695C184.36 542.027 184.856 541.52 185.481 541.173C186.106 540.827 186.806 540.653 187.581 540.653C188.11 540.653 188.598 540.727 189.047 540.875C189.496 541.02 189.891 541.233 190.232 541.514C190.573 541.793 190.85 542.135 191.063 542.541C191.276 542.947 191.408 543.412 191.459 543.935ZM192.861 542.486V540.773H200.237V542.486H197.591V549.5H195.511V542.486H192.861ZM203.857 540.773V549.5H201.747V540.773H203.857ZM213.898 545.136C213.898 546.097 213.713 546.911 213.344 547.578C212.975 548.246 212.475 548.753 211.844 549.099C211.216 549.446 210.512 549.619 209.731 549.619C208.946 549.619 208.24 549.445 207.613 549.095C206.985 548.746 206.486 548.239 206.117 547.574C205.75 546.906 205.567 546.094 205.567 545.136C205.567 544.176 205.75 543.362 206.117 542.695C206.486 542.027 206.985 541.52 207.613 541.173C208.24 540.827 208.946 540.653 209.731 540.653C210.512 540.653 211.216 540.827 211.844 541.173C212.475 541.52 212.975 542.027 213.344 542.695C213.713 543.362 213.898 544.176 213.898 545.136ZM211.742 545.136C211.742 544.568 211.661 544.088 211.499 543.696C211.34 543.304 211.11 543.007 210.809 542.805C210.51 542.604 210.151 542.503 209.731 542.503C209.313 542.503 208.954 542.604 208.652 542.805C208.351 543.007 208.12 543.304 207.958 543.696C207.799 544.088 207.719 544.568 207.719 545.136C207.719 545.705 207.799 546.185 207.958 546.577C208.12 546.969 208.351 547.266 208.652 547.467C208.954 547.669 209.313 547.77 209.731 547.77C210.151 547.77 210.51 547.669 210.809 547.467C211.11 547.266 211.34 546.969 211.499 546.577C211.661 546.185 211.742 545.705 211.742 545.136ZM223.037 540.773V549.5H221.247L217.774 544.463H217.719V549.5H215.61V540.773H217.425L220.86 545.801H220.932V540.773H223.037Z" fill="black"/>
<path d="M138.588 582.773H140.667V588.807C140.664 589.372 140.529 589.866 140.262 590.29C139.995 590.71 139.626 591.037 139.154 591.27C138.686 591.503 138.143 591.619 137.526 591.619C136.981 591.619 136.485 591.524 136.039 591.334C135.596 591.143 135.242 590.848 134.978 590.447C134.717 590.047 134.588 589.534 134.59 588.909H136.691C136.7 589.134 136.742 589.325 136.819 589.484C136.899 589.641 137.008 589.759 137.147 589.838C137.286 589.918 137.453 589.957 137.646 589.957C137.848 589.957 138.018 589.915 138.157 589.83C138.296 589.741 138.401 589.612 138.473 589.442C138.546 589.271 138.585 589.06 138.588 588.807V582.773ZM147.189 585.389C147.16 585.077 147.034 584.834 146.809 584.661C146.588 584.484 146.271 584.396 145.859 584.396C145.586 584.396 145.359 584.432 145.177 584.503C144.995 584.574 144.859 584.672 144.768 584.797C144.677 584.919 144.63 585.06 144.628 585.219C144.622 585.349 144.647 585.464 144.704 585.564C144.764 585.663 144.849 585.751 144.96 585.828C145.074 585.902 145.21 585.967 145.369 586.024C145.528 586.081 145.707 586.131 145.906 586.173L146.656 586.344C147.088 586.438 147.468 586.562 147.798 586.719C148.13 586.875 148.409 587.061 148.633 587.277C148.861 587.493 149.032 587.741 149.149 588.023C149.265 588.304 149.325 588.619 149.328 588.969C149.325 589.52 149.186 589.993 148.91 590.388C148.635 590.783 148.238 591.085 147.721 591.295C147.207 591.506 146.586 591.611 145.859 591.611C145.129 591.611 144.493 591.501 143.95 591.283C143.407 591.064 142.986 590.732 142.684 590.286C142.383 589.839 142.228 589.276 142.22 588.594H144.24C144.257 588.875 144.332 589.109 144.466 589.297C144.599 589.484 144.782 589.626 145.015 589.723C145.251 589.82 145.524 589.868 145.834 589.868C146.118 589.868 146.359 589.83 146.558 589.753C146.76 589.676 146.915 589.57 147.022 589.433C147.13 589.297 147.186 589.141 147.189 588.964C147.186 588.8 147.135 588.659 147.035 588.543C146.936 588.423 146.782 588.321 146.575 588.236C146.37 588.148 146.109 588.067 145.791 587.993L144.879 587.78C144.123 587.607 143.528 587.327 143.093 586.94C142.659 586.551 142.443 586.026 142.446 585.364C142.443 584.824 142.588 584.351 142.88 583.945C143.173 583.538 143.578 583.222 144.095 582.994C144.612 582.767 145.201 582.653 145.863 582.653C146.54 582.653 147.126 582.768 147.623 582.999C148.123 583.226 148.511 583.545 148.787 583.957C149.062 584.369 149.203 584.847 149.209 585.389H147.189ZM159.11 587.136C159.11 588.097 158.926 588.911 158.556 589.578C158.187 590.246 157.687 590.753 157.056 591.099C156.429 591.446 155.724 591.619 154.943 591.619C154.159 591.619 153.453 591.445 152.825 591.095C152.197 590.746 151.698 590.239 151.329 589.574C150.963 588.906 150.779 588.094 150.779 587.136C150.779 586.176 150.963 585.362 151.329 584.695C151.698 584.027 152.197 583.52 152.825 583.173C153.453 582.827 154.159 582.653 154.943 582.653C155.724 582.653 156.429 582.827 157.056 583.173C157.687 583.52 158.187 584.027 158.556 584.695C158.926 585.362 159.11 586.176 159.11 587.136ZM156.954 587.136C156.954 586.568 156.873 586.088 156.711 585.696C156.552 585.304 156.322 585.007 156.021 584.805C155.723 584.604 155.363 584.503 154.943 584.503C154.525 584.503 154.166 584.604 153.865 584.805C153.564 585.007 153.332 585.304 153.17 585.696C153.011 586.088 152.931 586.568 152.931 587.136C152.931 587.705 153.011 588.185 153.17 588.577C153.332 588.969 153.564 589.266 153.865 589.467C154.166 589.669 154.525 589.77 154.943 589.77C155.363 589.77 155.723 589.669 156.021 589.467C156.322 589.266 156.552 588.969 156.711 588.577C156.873 588.185 156.954 587.705 156.954 587.136ZM168.25 582.773V591.5H166.46L162.987 586.463H162.931V591.5H160.822V582.773H162.637L166.072 587.801H166.144V582.773H168.25ZM173.114 591.5V582.773H176.719C177.373 582.773 177.936 582.901 178.411 583.156C178.888 583.409 179.256 583.763 179.515 584.217C179.773 584.669 179.902 585.195 179.902 585.794C179.902 586.396 179.77 586.923 179.506 587.375C179.245 587.824 178.871 588.172 178.385 588.419C177.9 588.666 177.323 588.79 176.655 588.79H174.431V587.128H176.263C176.581 587.128 176.847 587.072 177.06 586.962C177.276 586.851 177.439 586.696 177.55 586.497C177.661 586.295 177.716 586.061 177.716 585.794C177.716 585.524 177.661 585.291 177.55 585.095C177.439 584.896 177.276 584.743 177.06 584.635C176.844 584.527 176.578 584.473 176.263 584.473H175.223V591.5H173.114ZM182.255 591.5H179.988L182.933 582.773H185.741L188.686 591.5H186.419L184.369 584.972H184.301L182.255 591.5ZM181.953 588.065H186.691V589.668H181.953V588.065ZM190.105 591.5V582.773H193.71C194.364 582.773 194.928 582.891 195.402 583.126C195.879 583.359 196.247 583.695 196.506 584.132C196.764 584.567 196.894 585.082 196.894 585.679C196.894 586.284 196.761 586.798 196.497 587.222C196.233 587.642 195.858 587.963 195.372 588.185C194.886 588.403 194.311 588.513 193.646 588.513H191.367V586.851H193.254C193.573 586.851 193.838 586.81 194.051 586.727C194.267 586.642 194.431 586.514 194.541 586.344C194.652 586.17 194.708 585.949 194.708 585.679C194.708 585.409 194.652 585.186 194.541 585.01C194.431 584.831 194.267 584.697 194.051 584.609C193.835 584.518 193.57 584.473 193.254 584.473H192.215V591.5H190.105ZM195.019 587.511L197.192 591.5H194.891L192.76 587.511H195.019ZM203.248 585.389C203.219 585.077 203.093 584.834 202.869 584.661C202.647 584.484 202.33 584.396 201.918 584.396C201.646 584.396 201.418 584.432 201.237 584.503C201.055 584.574 200.918 584.672 200.827 584.797C200.737 584.919 200.69 585.06 200.687 585.219C200.681 585.349 200.707 585.464 200.764 585.564C200.823 585.663 200.908 585.751 201.019 585.828C201.133 585.902 201.269 585.967 201.428 586.024C201.587 586.081 201.766 586.131 201.965 586.173L202.715 586.344C203.147 586.438 203.528 586.562 203.857 586.719C204.19 586.875 204.468 587.061 204.692 587.277C204.92 587.493 205.092 587.741 205.208 588.023C205.325 588.304 205.384 588.619 205.387 588.969C205.384 589.52 205.245 589.993 204.969 590.388C204.694 590.783 204.298 591.085 203.781 591.295C203.266 591.506 202.646 591.611 201.918 591.611C201.188 591.611 200.552 591.501 200.009 591.283C199.467 591.064 199.045 590.732 198.744 590.286C198.442 589.839 198.288 589.276 198.279 588.594H200.299C200.316 588.875 200.391 589.109 200.525 589.297C200.658 589.484 200.842 589.626 201.075 589.723C201.31 589.82 201.583 589.868 201.893 589.868C202.177 589.868 202.418 589.83 202.617 589.753C202.819 589.676 202.974 589.57 203.082 589.433C203.19 589.297 203.245 589.141 203.248 588.964C203.245 588.8 203.194 588.659 203.094 588.543C202.995 588.423 202.842 588.321 202.634 588.236C202.43 588.148 202.168 588.067 201.85 587.993L200.938 587.78C200.183 587.607 199.587 587.327 199.153 586.94C198.718 586.551 198.502 586.026 198.505 585.364C198.502 584.824 198.647 584.351 198.94 583.945C199.232 583.538 199.637 583.222 200.154 582.994C200.671 582.767 201.261 582.653 201.923 582.653C202.599 582.653 203.185 582.768 203.683 582.999C204.183 583.226 204.57 583.545 204.846 583.957C205.121 584.369 205.262 584.847 205.268 585.389H203.248ZM209.042 582.773V591.5H206.932V582.773H209.042ZM218.274 582.773V591.5H216.484L213.011 586.463H212.955V591.5H210.846V582.773H212.661L216.096 587.801H216.168V582.773H218.274ZM225.807 585.624C225.759 585.445 225.688 585.287 225.594 585.151C225.5 585.011 225.385 584.893 225.249 584.797C225.113 584.7 224.956 584.628 224.78 584.58C224.604 584.528 224.411 584.503 224.201 584.503C223.777 584.503 223.411 584.605 223.101 584.81C222.794 585.014 222.557 585.312 222.39 585.705C222.222 586.094 222.138 586.567 222.138 587.124C222.138 587.683 222.219 588.161 222.381 588.555C222.543 588.95 222.777 589.251 223.084 589.459C223.391 589.666 223.763 589.77 224.201 589.77C224.587 589.77 224.914 589.707 225.181 589.582C225.451 589.455 225.655 589.274 225.794 589.041C225.934 588.808 226.003 588.534 226.003 588.219L226.395 588.266H224.273V586.727H228.036V587.882C228.036 588.663 227.87 589.332 227.537 589.889C227.208 590.446 226.753 590.874 226.174 591.172C225.597 591.47 224.934 591.619 224.184 591.619C223.351 591.619 222.62 591.439 221.989 591.078C221.358 590.717 220.867 590.203 220.515 589.536C220.162 588.865 219.986 588.07 219.986 587.149C219.986 586.433 220.093 585.798 220.306 585.244C220.519 584.687 220.816 584.216 221.196 583.83C221.58 583.443 222.023 583.151 222.526 582.952C223.032 582.753 223.576 582.653 224.158 582.653C224.664 582.653 225.134 582.726 225.569 582.871C226.006 583.016 226.392 583.22 226.728 583.484C227.066 583.749 227.34 584.062 227.55 584.426C227.76 584.79 227.891 585.189 227.942 585.624H225.807Z" fill="black"/>
<rect x="119.5" y="466.5" width="124" height="40" rx="3" stroke="black" stroke-width="2"/>
<rect x="119.5" y="518.5" width="124" height="40" rx="3" stroke="black" stroke-width="2"/>
<rect x="119.5" y="567.5" width="124" height="40" rx="3" stroke="black" stroke-width="2"/>
<path d="M78.3751 579.292L84.5418 579.292" stroke="black" stroke-width="3" stroke-linecap="round"/>
<path d="M78.3751 591.625L83.0001 591.625" stroke="black" stroke-width="3" stroke-linecap="round"/>
<path d="M78.3751 585.458L87.6251 585.458" stroke="black" stroke-width="3" stroke-linecap="round"/>
<path d="M93.7918 585.458V579.125C93.7918 576.297 93.7918 574.882 92.9131 574.004C92.0344 573.125 90.6202 573.125 87.7918 573.125H78.2084C75.38 573.125 73.9658 573.125 73.0871 574.004C72.2084 574.882 72.2084 576.297 72.2084 579.125V594.875C72.2084 597.703 72.2084 599.118 73.0871 599.996C73.9658 600.875 75.38 600.875 78.2084 600.875H83.0001" stroke="black" stroke-width="3"/>
<circle cx="91.4793" cy="595.479" r="3.85417" stroke="black" stroke-width="3"/>
<path d="M96.8751 600.875L94.5626 598.562" stroke="black" stroke-width="3" stroke-linecap="round"/>
<path d="M83.2293 532.896L83.2293 527.062" stroke="black" stroke-width="2" stroke-linecap="round"/>
<path d="M75.5209 541.646L75.5209 547.479" stroke="black" stroke-width="2" stroke-linecap="round"/>
<path d="M90.9376 544.562L90.9376 547.479" stroke="black" stroke-width="2" stroke-linecap="round"/>
<path d="M83.2293 547.479V538.729" stroke="black" stroke-width="2" stroke-linecap="round"/>
<path d="M75.5209 527.062V535.813" stroke="black" stroke-width="2" stroke-linecap="round"/>
<path d="M90.9376 527.062V538.729" stroke="black" stroke-width="2" stroke-linecap="round"/>
<path d="M80.1459 532.896H86.3126" stroke="black" stroke-width="2" stroke-linecap="round"/>
<path d="M72.4376 541.646H78.6043" stroke="black" stroke-width="2" stroke-linecap="round"/>
<path d="M87.8543 544.562H94.021" stroke="black" stroke-width="2" stroke-linecap="round"/>
<path d="M83.0001 473L71.6251 477.875L83.0001 482.75L94.3751 477.875L83.0001 473Z" fill="black" stroke="black" stroke-linejoin="round"/>
<path fill-rule="evenodd" clip-rule="evenodd" d="M77.9311 482.753L71.4282 485.54C71.2443 485.619 71.1251 485.8 71.1251 486C71.1251 486.2 71.2443 486.381 71.4282 486.46L82.8032 491.335C82.9289 491.388 83.0713 491.388 83.1971 491.335L94.5721 486.46C94.7559 486.381 94.8751 486.2 94.8751 486C94.8751 485.8 94.7559 485.619 94.5721 485.54L88.0692 482.753L86.7999 483.297L93.1058 486L83.0001 490.331L72.8944 486L79.2003 483.297L77.9311 482.753Z" fill="black"/>
<path fill-rule="evenodd" clip-rule="evenodd" d="M77.9311 490.878L71.4282 493.665C71.2443 493.744 71.1251 493.925 71.1251 494.125C71.1251 494.325 71.2443 494.506 71.4282 494.585L82.8032 499.46C82.9289 499.513 83.0713 499.513 83.1971 499.46L94.5721 494.585C94.7559 494.506 94.8751 494.325 94.8751 494.125C94.8751 493.925 94.7559 493.744 94.5721 493.665L88.0692 490.878L86.7999 491.422L93.1058 494.125L83.0001 498.456L72.8944 494.125L79.2003 491.422L77.9311 490.878Z" fill="black"/>
<path d="M251.5 595.004L250.842 594.251C250.625 594.441 250.5 594.716 250.5 595.004C250.5 595.293 250.625 595.567 250.842 595.757L251.5 595.004ZM267.5 579.004L268.5 579.004L268.5 579.004L267.5 579.004ZM267.5 557.5L268.5 557.5L267.5 557.5ZM256.5 545.5C255.948 545.5 255.5 545.948 255.5 546.5C255.5 547.052 255.948 547.5 256.5 547.5L256.5 545.5ZM254.842 590.755L250.842 594.251L252.158 595.757L256.158 592.261L254.842 590.755ZM250.842 595.757L254.842 599.253L256.158 597.747L252.158 594.251L250.842 595.757ZM268.5 579.004L268.5 557.5L266.5 557.5L266.5 579.004L268.5 579.004ZM268.5 557.5C268.5 550.873 263.127 545.5 256.5 545.5L256.5 547.5C262.023 547.5 266.5 551.977 266.5 557.5L268.5 557.5ZM251.5 596.004C260.889 596.004 268.5 588.393 268.5 579.004L266.5 579.004C266.5 587.288 259.784 594.004 251.5 594.004L251.5 596.004Z" fill="black"/>
<circle cx="2" cy="2" r="2" transform="matrix(1 0 0 -1 251.5 548.5)" stroke="black" stroke-width="2"/>
<path d="M280.479 451L297.049 451C300.336 451 303 448.336 303 445.049V445.049C303 441.724 300.276 439.044 296.952 439.099L280 439.375" stroke="black" stroke-width="3"/>
<path d="M280.479 532L297.049 532C300.336 532 303 529.336 303 526.049V526.049C303 522.724 300.276 520.044 296.952 520.099L280 520.375" stroke="black" stroke-width="3"/>
<path d="M280.479 478L297.049 478C300.336 478 303 475.336 303 472.049V472.049C303 468.724 300.276 466.044 296.952 466.099L280 466.375" stroke="black" stroke-width="3"/>
<path d="M280.479 559L297.049 559C300.336 559 303 556.336 303 553.049V553.049C303 549.724 300.276 547.044 296.952 547.099L280 547.375" stroke="black" stroke-width="3"/>
<path d="M280.479 505L297.049 505C300.336 505 303 502.336 303 499.049V499.049C303 495.724 300.276 493.044 296.952 493.099L280 493.375" stroke="black" stroke-width="3"/>
<path d="M280.479 586L297.049 586C300.336 586 303 583.336 303 580.049V580.049C303 576.724 300.276 574.044 296.952 574.099L280 574.375" stroke="black" stroke-width="3"/>
<path d="M280.479 613L297.049 613C300.336 613 303 610.336 303 607.049V607.049C303 603.724 300.276 601.044 296.952 601.099L280 601.375" stroke="black" stroke-width="3"/>
<path d="M28.5208 451L11.9511 451C8.66439 451 6 448.336 6 445.049V445.049C6 441.724 8.7239 439.044 12.0481 439.099L29 439.375" stroke="black" stroke-width="3"/>
<path d="M28.5208 532L11.9511 532C8.66439 532 6 529.336 6 526.049V526.049C6 522.724 8.7239 520.044 12.0481 520.099L29 520.375" stroke="black" stroke-width="3"/>
<path d="M28.5208 478L11.9511 478C8.66439 478 6 475.336 6 472.049V472.049C6 468.724 8.7239 466.044 12.0481 466.099L29 466.375" stroke="black" stroke-width="3"/>
<path d="M28.5208 559L11.9511 559C8.66439 559 6 556.336 6 553.049V553.049C6 549.724 8.7239 547.044 12.0481 547.099L29 547.375" stroke="black" stroke-width="3"/>
<path d="M28.5208 505L11.9511 505C8.66439 505 6 502.336 6 499.049V499.049C6 495.724 8.7239 493.044 12.0481 493.099L29 493.375" stroke="black" stroke-width="3"/>
<path d="M28.5208 586L11.9511 586C8.66439 586 6 583.336 6 580.049V580.049C6 576.724 8.7239 574.044 12.0481 574.099L29 574.375" stroke="black" stroke-width="3"/>
<path d="M28.5208 613L11.9511 613C8.66439 613 6 610.336 6 607.049V607.049C6 603.724 8.7239 601.044 12.0481 601.099L29 601.375" stroke="black" stroke-width="3"/>
<path d="M241 651.479L241 668.049C241 671.336 243.665 674 246.951 674V674C250.276 674 252.956 671.276 252.902 667.952L252.625 651" stroke="black" stroke-width="3"/>
<path d="M160 651.479L160 668.049C160 671.336 162.665 674 165.951 674V674C169.276 674 171.956 671.276 171.902 667.952L171.625 651" stroke="black" stroke-width="3"/>
<path d="M214 651.479L214 668.049C214 671.336 216.665 674 219.951 674V674C223.276 674 225.956 671.276 225.902 667.952L225.625 651" stroke="black" stroke-width="3"/>
<path d="M133 651.479L133 668.049C133 671.336 135.665 674 138.951 674V674C142.276 674 144.956 671.276 144.902 667.952L144.625 651" stroke="black" stroke-width="3"/>
<path d="M187 651.479L187 668.049C187 671.336 189.665 674 192.951 674V674C196.276 674 198.956 671.276 198.902 667.952L198.625 651" stroke="black" stroke-width="3"/>
<path d="M106 651.479L106 668.049C106 671.336 108.665 674 111.951 674V674C115.276 674 117.956 671.276 117.902 667.952L117.625 651" stroke="black" stroke-width="3"/>
<path d="M79.0001 651.479L79.0001 668.049C79.0001 671.336 81.6645 674 84.9512 674V674C88.2759 674 90.9557 671.276 90.9015 667.952L90.6251 651" stroke="black" stroke-width="3"/>
<path d="M241 400.521V383.951C241 380.664 243.665 378 246.951 378V378C250.276 378 252.956 380.724 252.902 384.048L252.625 401" stroke="black" stroke-width="3"/>
<path d="M160 400.521V383.951C160 380.664 162.665 378 165.951 378V378C169.276 378 171.956 380.724 171.902 384.048L171.625 401" stroke="black" stroke-width="3"/>
<path d="M214 400.521V383.951C214 380.664 216.665 378 219.951 378V378C223.276 378 225.956 380.724 225.902 384.048L225.625 401" stroke="black" stroke-width="3"/>
<path d="M133 400.521V383.951C133 380.664 135.665 378 138.951 378V378C142.276 378 144.956 380.724 144.902 384.048L144.625 401" stroke="black" stroke-width="3"/>
<path d="M187 400.521V383.951C187 380.664 189.665 378 192.951 378V378C196.276 378 198.956 380.724 198.902 384.048L198.625 401" stroke="black" stroke-width="3"/>
<path d="M106 400.521V383.951C106 380.664 108.665 378 111.951 378V378C115.276 378 117.956 380.724 117.902 384.048L117.625 401" stroke="black" stroke-width="3"/>
<path d="M79.0001 400.521V383.951C79.0001 380.664 81.6645 378 84.9512 378V378C88.2759 378 90.9557 380.724 90.9015 384.048L90.6251 401" stroke="black" stroke-width="3"/>
<path d="M168.833 304.833L169.54 304.126L168.833 303.419L168.126 304.126L168.833 304.833ZM162.917 351.167C162.364 351.167 161.917 351.614 161.917 352.167C161.917 352.719 162.364 353.167 162.917 353.167L162.917 351.167ZM181.374 315.96L169.54 304.126L168.126 305.54L179.959 317.374L181.374 315.96ZM168.126 304.126L156.293 315.96L157.707 317.374L169.54 305.54L168.126 304.126ZM167.833 304.833L167.833 350.167L169.833 350.167L169.833 304.833L167.833 304.833ZM166.833 351.167L162.917 351.167L162.917 353.167L166.833 353.167L166.833 351.167ZM167.833 350.167C167.833 350.719 167.386 351.167 166.833 351.167L166.833 353.167C168.49 353.167 169.833 351.824 169.833 350.167L167.833 350.167Z" fill="black"/>
<path d="M145.167 352.167L145.874 352.874L145.167 353.581L144.459 352.874L145.167 352.167ZM145.167 303.875L146.167 303.875V303.875L145.167 303.875ZM151.083 300.875C151.635 300.875 152.083 301.323 152.083 301.875C152.083 302.427 151.635 302.875 151.083 302.875L151.083 300.875ZM157.707 341.04L145.874 352.874L144.459 351.46L156.293 339.626L157.707 341.04ZM144.459 352.874L132.626 341.04L134.04 339.626L145.874 351.46L144.459 352.874ZM144.167 352.167L144.167 303.875L146.167 303.875L146.167 352.167L144.167 352.167ZM147.167 300.875L151.083 300.875L151.083 302.875L147.167 302.875L147.167 300.875ZM144.167 303.875C144.167 302.218 145.51 300.875 147.167 300.875L147.167 302.875C146.614 302.875 146.167 303.323 146.167 303.875L144.167 303.875Z" fill="black"/>
<path d="M252 534.235L251.315 533.507C251.114 533.696 251 533.96 251 534.235C251 534.511 251.114 534.775 251.315 534.963L252 534.235ZM268 518.235L267 518.235L267 518.235L268 518.235ZM268 491L267 491L267 491L268 491ZM259 481C258.448 481 258 481.448 258 482C258 482.552 258.448 483 259 483L259 481ZM255.315 529.742L251.315 533.507L252.685 534.963L256.685 531.199L255.315 529.742ZM251.315 534.963L255.315 538.728L256.685 537.272L252.685 533.507L251.315 534.963ZM269 518.235L269 491L267 491L267 518.235L269 518.235ZM269 491C269 485.477 264.523 481 259 481L259 483C263.418 483 267 486.582 267 491L269 491ZM252 535.235C261.389 535.235 269 527.624 269 518.235L267 518.235C267 526.52 260.284 533.235 252 533.235L252 535.235Z" fill="black"/>
<circle cx="2" cy="2" r="2" transform="matrix(1 0 0 -1 255 484)" stroke="black" stroke-width="2"/>
</g>
<defs>
<clipPath id="clip0_20_2">
<rect width="696" height="309" fill="white" transform="translate(309.5 0.500007) rotate(90)"/>
</clipPath>
<clipPath id="clip1_20_2">
<rect width="255" height="254" fill="white" transform="translate(29.0005 30)"/>
</clipPath>
</defs>
</svg>
